<?xml version="1.0" encoding="UTF-8"?>
<svg xmlns="http://www.w3.org/2000/svg" xmlns:xlink="http://www.w3.org/1999/xlink" width="2040.9449pt" height="2040.9449pt" viewBox="0 0 2040.9449 2040.9449" version="1.1">
<g id="surface1">
<path style=" stroke:none;fill-rule:evenodd;fill:rgb(10.195923%,10.195923%,9.411621%);fill-opacity:1;" d="M 1020.472656 28.347656 C 1568.410156 28.347656 2012.597656 472.535156 2012.597656 1020.472656 C 2012.597656 1568.410156 1568.410156 2012.597656 1020.472656 2012.597656 C 472.535156 2012.597656 28.347656 1568.410156 28.347656 1020.472656 C 28.347656 472.535156 472.535156 28.347656 1020.472656 28.347656 "/>
<path style=" stroke:none;fill-rule:nonzero;fill:rgb(100%,100%,100%);fill-opacity:1;" d="M 1020.472656 74.453125 C 1281.707031 74.453125 1518.210938 180.339844 1689.410156 351.535156 C 1860.605469 522.730469 1966.492188 759.238281 1966.492188 1020.472656 C 1966.492188 1281.707031 1860.605469 1518.210938 1689.410156 1689.410156 C 1518.210938 1860.605469 1281.707031 1966.492188 1020.472656 1966.492188 C 759.238281 1966.492188 522.730469 1860.605469 351.535156 1689.410156 C 180.339844 1518.210938 74.453125 1281.707031 74.453125 1020.472656 C 74.453125 759.238281 180.339844 522.730469 351.535156 351.535156 C 522.730469 180.339844 759.238281 74.453125 1020.472656 74.453125 Z M 1679.386719 361.558594 C 1510.757813 192.925781 1277.796875 88.625 1020.472656 88.625 C 763.148438 88.625 530.1875 192.925781 361.558594 361.558594 C 192.925781 530.1875 88.625 763.148438 88.625 1020.472656 C 88.625 1277.796875 192.925781 1510.757813 361.558594 1679.386719 C 530.1875 1848.019531 763.148438 1952.316406 1020.472656 1952.316406 C 1277.796875 1952.316406 1510.757813 1848.019531 1679.386719 1679.386719 C 1848.019531 1510.757813 1952.316406 1277.796875 1952.316406 1020.472656 C 1952.316406 763.148438 1848.019531 530.1875 1679.386719 361.558594 "/>
<path style=" stroke:none;fill-rule:evenodd;fill:rgb(100%,100%,100%);fill-opacity:1;" d="M 807.476563 631.433594 C 807.476563 631.433594 844.679688 661.320313 850.476563 686.328125 C 856.269531 711.332031 840.410156 729.324219 829.433594 738.777344 C 818.457031 748.230469 799.242188 782.386719 813.269531 833.617188 C 827.300781 884.847656 881.582031 887.898438 898.65625 906.804688 C 915.734375 925.710938 964.527344 1037.933594 975.503906 1076.359375 C 986.480469 1114.78125 996.851563 1166.625 996.851563 1166.625 C 996.851563 1166.625 907.804688 1413.632813 860.234375 1574.035156 C 812.660156 1734.441406 799.851563 1774.085938 803.511719 1780.183594 C 807.171875 1786.28125 884.019531 1647.222656 905.363281 1597.824219 C 926.710938 1548.421875 988.921875 1409.363281 996.851563 1383.136719 C 1004.78125 1356.910156 1038.933594 1288.605469 1038.933594 1288.605469 C 1038.933594 1288.605469 1081.015625 1433.148438 1113.949219 1524.023438 C 1146.886719 1614.898438 1220.074219 1773.472656 1225.5625 1781.402344 C 1231.050781 1789.332031 1226.78125 1766.15625 1225.5625 1751.519531 C 1224.34375 1736.878906 1134.6875 1348.984375 1115.777344 1282.503906 C 1096.871094 1216.027344 1077.355469 1170.28125 1079.792969 1157.476563 C 1082.234375 1144.667969 1137.125 997.070313 1168.230469 958.648438 C 1199.335938 920.222656 1197.503906 923.273438 1218.851563 919.003906 C 1240.199219 914.734375 1291.429688 870.214844 1284.71875 818.371094 C 1278.011719 766.53125 1235.316406 728.105469 1180.425781 740.914063 C 1125.535156 753.722656 1121.265625 820.8125 1126.753906 848.257813 C 1132.246094 875.703125 1150.542969 897.660156 1152.980469 914.125 C 1155.421875 930.59375 1088.941406 1020.25 1070.035156 1042.203125 C 1051.128906 1064.160156 1043.199219 1071.480469 1043.199219 1071.480469 C 1043.199219 1071.480469 948.054688 942.179688 940.734375 926.324219 C 933.417969 910.464844 932.199219 884.242188 943.785156 873.871094 C 955.375 863.503906 980.988281 795.804688 952.324219 749.453125 C 923.660156 703.101563 887.066406 717.738281 877.304688 698.222656 C 867.546875 678.703125 857.789063 634.792969 833.394531 621.984375 C 808.996094 609.175781 804.117188 615.273438 807.476563 631.433594 Z M 1039.957031 1137.878906 C 1051.203125 1137.878906 1060.320313 1146.996094 1060.320313 1158.242188 C 1060.320313 1169.488281 1051.203125 1178.605469 1039.957031 1178.605469 C 1028.710938 1178.605469 1019.59375 1169.488281 1019.59375 1158.242188 C 1019.59375 1146.996094 1028.710938 1137.878906 1039.957031 1137.878906 Z M 1202.890625 761.332031 C 1236.019531 761.332031 1262.875 789.851563 1262.875 825.03125 C 1262.875 860.210938 1236.019531 888.726563 1202.890625 888.726563 C 1169.765625 888.726563 1142.910156 860.210938 1142.910156 825.03125 C 1142.910156 789.851563 1169.765625 761.332031 1202.890625 761.332031 Z M 889.414063 738.777344 C 922.542969 738.777344 949.398438 767.296875 949.398438 802.476563 C 949.398438 837.652344 922.542969 866.171875 889.414063 866.171875 C 856.289063 866.171875 829.433594 837.652344 829.433594 802.476563 C 829.433594 767.296875 856.289063 738.777344 889.414063 738.777344 "/>
<path style=" stroke:none;fill-rule:evenodd;fill:rgb(100%,100%,100%);fill-opacity:1;" d="M 321.589844 1160.582031 C 331.273438 1160.582031 339.125 1168.433594 339.125 1178.117188 C 339.125 1187.804688 331.273438 1195.652344 321.589844 1195.652344 C 311.90625 1195.652344 304.054688 1187.804688 304.054688 1178.117188 C 304.054688 1168.433594 311.90625 1160.582031 321.589844 1160.582031 "/>
<path style=" stroke:none;fill-rule:evenodd;fill:rgb(100%,100%,100%);fill-opacity:1;" d="M 342.398438 1265.226563 C 351.976563 1263.808594 360.894531 1270.425781 362.3125 1280.007813 C 363.726563 1289.585938 357.109375 1298.5 347.53125 1299.917969 C 337.949219 1301.335938 329.035156 1294.71875 327.617188 1285.136719 C 326.203125 1275.558594 332.820313 1266.644531 342.398438 1265.226563 "/>
<path style=" stroke:none;fill-rule:evenodd;fill:rgb(100%,100%,100%);fill-opacity:1;" d="M 378.296875 1365.695313 C 387.566406 1362.894531 397.351563 1368.132813 400.15625 1377.402344 C 402.960938 1386.671875 397.71875 1396.460938 388.449219 1399.265625 C 379.179688 1402.066406 369.394531 1396.828125 366.589844 1387.558594 C 363.785156 1378.289063 369.027344 1368.5 378.296875 1365.695313 "/>
<path style=" stroke:none;fill-rule:evenodd;fill:rgb(100%,100%,100%);fill-opacity:1;" d="M 428.511719 1459.832031 C 437.269531 1455.703125 447.71875 1459.453125 451.847656 1468.214844 C 455.980469 1476.972656 452.226563 1487.421875 443.46875 1491.550781 C 434.707031 1495.683594 424.257813 1491.929688 420.128906 1483.171875 C 416 1474.410156 419.75 1463.960938 428.511719 1459.832031 "/>
<path style=" stroke:none;fill-rule:evenodd;fill:rgb(100%,100%,100%);fill-opacity:1;" d="M 491.960938 1545.605469 C 500.019531 1540.238281 510.90625 1542.421875 516.273438 1550.480469 C 521.640625 1558.542969 519.457031 1569.429688 511.398438 1574.796875 C 503.335938 1580.164063 492.453125 1577.980469 487.085938 1569.917969 C 481.714844 1561.859375 483.898438 1550.972656 491.960938 1545.605469 "/>
<path style=" stroke:none;fill-rule:evenodd;fill:rgb(100%,100%,100%);fill-opacity:1;" d="M 567.277344 1621.171875 C 574.46875 1614.679688 585.554688 1615.246094 592.042969 1622.4375 C 598.535156 1629.625 597.96875 1640.710938 590.78125 1647.203125 C 583.589844 1653.691406 572.503906 1653.125 566.015625 1645.9375 C 559.523438 1638.746094 560.089844 1627.660156 567.277344 1621.171875 "/>
<path style=" stroke:none;fill-rule:evenodd;fill:rgb(100%,100%,100%);fill-opacity:1;" d="M 652.84375 1684.898438 C 659.007813 1677.425781 670.058594 1676.367188 677.53125 1682.527344 C 685 1688.6875 686.0625 1699.738281 679.902344 1707.210938 C 673.742188 1714.683594 662.6875 1715.746094 655.21875 1709.582031 C 647.746094 1703.421875 646.683594 1692.371094 652.84375 1684.898438 "/>
<path style=" stroke:none;fill-rule:nonzero;fill:rgb(100%,100%,100%);fill-opacity:1;" d="M 609.9375 1216.867188 L 609.9375 1104.277344 L 644.742188 1104.277344 L 644.742188 1117.660156 L 623.027344 1117.660156 L 623.027344 1153.058594 L 644.445313 1153.058594 L 644.445313 1165.851563 L 623.027344 1165.851563 L 623.027344 1202.882813 L 644.59375 1202.882813 L 644.59375 1216.867188 Z M 690.132813 1179.238281 C 689.933594 1180.328125 689.808594 1181.566406 689.761719 1182.953125 C 689.710938 1184.34375 689.6875 1186.078125 689.6875 1188.160156 C 689.6875 1192.523438 689.785156 1195.671875 689.984375 1197.605469 C 690.179688 1199.539063 690.628906 1201.148438 691.320313 1202.4375 C 691.917969 1203.53125 692.609375 1204.296875 693.402344 1204.742188 C 694.199219 1205.191406 695.4375 1205.414063 697.121094 1205.414063 C 699.105469 1205.414063 700.519531 1205.191406 701.363281 1204.742188 C 702.203125 1204.296875 702.972656 1203.429688 703.667969 1202.140625 C 704.359375 1200.753906 704.808594 1198.96875 705.003906 1196.785156 C 705.203125 1194.605469 705.300781 1191.035156 705.300781 1186.078125 C 705.300781 1184.195313 705.300781 1182.609375 705.300781 1181.320313 C 705.300781 1180.03125 705.253906 1178.964844 705.152344 1178.121094 C 705.054688 1177.277344 704.957031 1176.535156 704.855469 1175.890625 C 704.757813 1175.246094 704.609375 1174.527344 704.410156 1173.734375 C 704.015625 1172.34375 703.492188 1171.304688 702.847656 1170.609375 C 702.203125 1169.914063 701.136719 1169.023438 699.652344 1167.933594 C 698.460938 1167.039063 697.121094 1166.125 695.636719 1165.179688 C 694.148438 1164.238281 692.660156 1163.273438 691.171875 1162.28125 C 689.6875 1161.289063 688.246094 1160.273438 686.859375 1159.230469 C 685.472656 1158.191406 684.28125 1157.175781 683.289063 1156.183594 C 682.296875 1155.191406 681.457031 1154.074219 680.761719 1152.835938 C 680.066406 1151.597656 679.523438 1149.984375 679.125 1148.003906 C 678.730469 1146.019531 678.433594 1143.492188 678.234375 1140.417969 C 678.035156 1137.34375 677.9375 1133.425781 677.9375 1128.667969 C 677.9375 1122.421875 678.308594 1117.734375 679.050781 1114.613281 C 679.796875 1111.488281 681.058594 1108.9375 682.84375 1106.953125 C 684.429688 1105.265625 686.265625 1104.078125 688.347656 1103.382813 C 690.429688 1102.6875 693.402344 1102.34375 697.269531 1102.34375 C 701.832031 1102.34375 705.277344 1102.839844 707.609375 1103.828125 C 709.9375 1104.820313 711.746094 1106.160156 713.035156 1107.84375 C 714.425781 1109.730469 715.367188 1112.035156 715.863281 1114.761719 C 716.359375 1117.488281 716.605469 1121.378906 716.605469 1126.4375 C 716.605469 1129.609375 716.53125 1132.210938 716.382813 1134.246094 C 716.234375 1136.277344 716.011719 1137.9375 715.714844 1139.226563 L 704.558594 1139.226563 C 704.757813 1138.234375 704.882813 1137.023438 704.929688 1135.582031 C 704.980469 1134.144531 705.003906 1132.285156 705.003906 1130.007813 C 705.003906 1126.238281 704.855469 1123.4375 704.558594 1121.601563 C 704.261719 1119.769531 703.714844 1118.304688 702.921875 1117.214844 C 702.328125 1116.421875 701.632813 1115.902344 700.839844 1115.652344 C 700.046875 1115.40625 698.859375 1115.28125 697.269531 1115.28125 C 695.683594 1115.28125 694.519531 1115.429688 693.777344 1115.726563 C 693.03125 1116.027344 692.363281 1116.621094 691.769531 1117.511719 C 691.074219 1118.601563 690.601563 1120.042969 690.355469 1121.824219 C 690.105469 1123.609375 689.984375 1126.484375 689.984375 1130.453125 C 689.984375 1132.734375 689.984375 1134.59375 689.984375 1136.03125 C 689.984375 1137.46875 690.007813 1138.65625 690.058594 1139.597656 C 690.105469 1140.542969 690.207031 1141.335938 690.355469 1141.980469 C 690.503906 1142.625 690.675781 1143.292969 690.875 1143.988281 C 691.371094 1145.277344 691.867188 1146.242188 692.363281 1146.886719 C 692.859375 1147.53125 693.898438 1148.449219 695.484375 1149.640625 C 697.269531 1151.027344 699.429688 1152.414063 701.957031 1153.804688 C 704.484375 1155.191406 706.890625 1156.726563 709.167969 1158.414063 C 710.953125 1159.703125 712.269531 1160.769531 713.109375 1161.613281 C 713.953125 1162.453125 714.773438 1163.667969 715.566406 1165.253906 C 715.960938 1166.148438 716.308594 1167.039063 716.605469 1167.933594 C 716.902344 1168.824219 717.125 1170.015625 717.277344 1171.503906 C 717.425781 1172.988281 717.523438 1174.898438 717.574219 1177.230469 C 717.621094 1179.558594 717.648438 1182.558594 717.648438 1186.226563 C 717.648438 1190.09375 717.546875 1193.390625 717.351563 1196.117188 C 717.152344 1198.84375 716.878906 1201.175781 716.53125 1203.109375 C 716.183594 1205.042969 715.761719 1206.675781 715.269531 1208.015625 C 714.773438 1209.355469 714.226563 1210.617188 713.632813 1211.808594 C 712.441406 1214.089844 710.558594 1215.824219 707.980469 1217.015625 C 705.402344 1218.203125 701.734375 1218.800781 696.972656 1218.800781 C 692.910156 1218.800781 689.710938 1218.351563 687.378906 1217.460938 C 685.050781 1216.566406 683.191406 1214.832031 681.804688 1212.253906 C 681.207031 1211.164063 680.664063 1210.023438 680.167969 1208.835938 C 679.671875 1207.644531 679.273438 1206.257813 678.976563 1204.667969 C 678.679688 1203.082031 678.457031 1201.199219 678.308594 1199.019531 C 678.160156 1196.835938 678.085938 1194.160156 678.085938 1190.984375 C 678.085938 1188.40625 678.160156 1186.152344 678.308594 1184.21875 C 678.457031 1182.285156 678.628906 1180.625 678.828125 1179.238281 Z M 760.808594 1216.867188 L 760.808594 1117.660156 L 746.824219 1117.660156 L 746.824219 1104.277344 L 787.875 1104.277344 L 787.875 1117.660156 L 774.042969 1117.660156 L 774.042969 1216.867188 Z M 760.808594 1216.867188 "/>
<path style=" stroke:none;fill-rule:nonzero;fill:rgb(100%,100%,100%);fill-opacity:1;" d="M 1277.988281 1216.867188 L 1277.988281 1201.992188 L 1294.644531 1177.601563 C 1297.519531 1173.335938 1299.675781 1169.839844 1301.113281 1167.113281 C 1302.550781 1164.386719 1303.667969 1161.785156 1304.460938 1159.304688 C 1305.253906 1156.726563 1305.773438 1153.902344 1306.023438 1150.828125 C 1306.269531 1147.753906 1306.394531 1143.839844 1306.394531 1139.078125 C 1306.394531 1134.914063 1306.371094 1131.566406 1306.320313 1129.039063 C 1306.269531 1126.511719 1306.171875 1124.527344 1306.023438 1123.089844 C 1305.875 1121.652344 1305.675781 1120.585938 1305.425781 1119.894531 C 1305.179688 1119.199219 1304.859375 1118.554688 1304.460938 1117.960938 C 1303.867188 1116.96875 1303.148438 1116.296875 1302.304688 1115.949219 C 1301.460938 1115.605469 1300.097656 1115.429688 1298.214844 1115.429688 C 1296.230469 1115.429688 1294.84375 1115.605469 1294.050781 1115.949219 C 1293.257813 1116.296875 1292.5625 1116.96875 1291.96875 1117.960938 C 1291.671875 1118.554688 1291.398438 1119.171875 1291.148438 1119.816406 C 1290.902344 1120.460938 1290.703125 1121.40625 1290.554688 1122.644531 C 1290.40625 1123.882813 1290.308594 1125.519531 1290.257813 1127.550781 C 1290.207031 1129.585938 1290.183594 1132.238281 1290.183594 1135.507813 C 1290.183594 1138.980469 1290.183594 1141.433594 1290.183594 1142.871094 C 1290.183594 1144.308594 1290.230469 1145.625 1290.332031 1146.8125 L 1277.839844 1146.8125 C 1277.640625 1145.226563 1277.539063 1143.664063 1277.539063 1142.128906 C 1277.539063 1140.589844 1277.539063 1138.386719 1277.539063 1135.507813 C 1277.539063 1131.839844 1277.589844 1128.617188 1277.6875 1125.84375 C 1277.789063 1123.066406 1277.9375 1120.636719 1278.136719 1118.554688 C 1278.332031 1116.472656 1278.65625 1114.6875 1279.101563 1113.199219 C 1279.546875 1111.710938 1280.167969 1110.421875 1280.960938 1109.332031 C 1281.855469 1108.042969 1282.722656 1106.953125 1283.5625 1106.058594 C 1284.40625 1105.167969 1285.472656 1104.449219 1286.761719 1103.902344 C 1288.050781 1103.359375 1289.613281 1102.960938 1291.445313 1102.714844 C 1293.28125 1102.464844 1295.535156 1102.34375 1298.214844 1102.34375 C 1303.867188 1102.34375 1307.980469 1102.914063 1310.558594 1104.050781 C 1313.136719 1105.191406 1315.121094 1107.300781 1316.507813 1110.375 C 1317.203125 1111.761719 1317.746094 1113.175781 1318.144531 1114.613281 C 1318.542969 1116.050781 1318.839844 1117.808594 1319.035156 1119.894531 C 1319.234375 1121.976563 1319.382813 1124.527344 1319.484375 1127.550781 C 1319.582031 1130.578125 1319.632813 1134.367188 1319.632813 1138.929688 C 1319.632813 1142.597656 1319.605469 1145.648438 1319.558594 1148.078125 C 1319.507813 1150.507813 1319.410156 1152.5625 1319.261719 1154.25 C 1319.109375 1155.933594 1318.886719 1157.421875 1318.589844 1158.710938 C 1318.292969 1160 1317.898438 1161.289063 1317.402344 1162.578125 C 1316.90625 1164.066406 1316.359375 1165.480469 1315.765625 1166.816406 C 1315.167969 1168.15625 1314.449219 1169.59375 1313.609375 1171.128906 C 1312.765625 1172.667969 1311.773438 1174.378906 1310.632813 1176.261719 C 1309.492188 1178.144531 1308.128906 1180.328125 1306.542969 1182.804688 L 1293.605469 1202.4375 C 1293.800781 1202.835938 1293.902344 1203.132813 1293.902344 1203.332031 L 1318.886719 1203.332031 L 1318.886719 1216.867188 Z M 1390.816406 1212.699219 C 1390.222656 1213.890625 1389.578125 1214.882813 1388.882813 1215.675781 C 1388.1875 1216.46875 1387.246094 1217.089844 1386.054688 1217.535156 C 1384.867188 1217.980469 1383.253906 1218.304688 1381.222656 1218.5 C 1379.191406 1218.699219 1376.539063 1218.800781 1373.265625 1218.800781 C 1369.992188 1218.800781 1367.339844 1218.699219 1365.308594 1218.5 C 1363.277344 1218.304688 1361.664063 1217.980469 1360.472656 1217.535156 C 1359.285156 1217.089844 1358.34375 1216.46875 1357.648438 1215.675781 C 1356.953125 1214.882813 1356.308594 1213.890625 1355.714844 1212.699219 C 1354.921875 1211.214844 1354.300781 1209.355469 1353.855469 1207.125 C 1353.410156 1204.890625 1353.039063 1201.84375 1352.742188 1197.976563 C 1352.441406 1194.109375 1352.246094 1189.175781 1352.144531 1183.175781 C 1352.046875 1177.179688 1351.996094 1169.617188 1351.996094 1160.496094 C 1351.996094 1151.375 1352.046875 1143.8125 1352.144531 1137.816406 C 1352.246094 1131.816406 1352.441406 1126.882813 1352.742188 1123.015625 C 1353.039063 1119.148438 1353.410156 1116.125 1353.855469 1113.941406 C 1354.300781 1111.761719 1354.921875 1109.925781 1355.714844 1108.441406 C 1356.308594 1107.25 1356.953125 1106.257813 1357.648438 1105.464844 C 1358.34375 1104.671875 1359.285156 1104.050781 1360.472656 1103.605469 C 1361.664063 1103.160156 1363.277344 1102.839844 1365.308594 1102.640625 C 1367.339844 1102.441406 1369.992188 1102.34375 1373.265625 1102.34375 C 1376.539063 1102.34375 1379.191406 1102.441406 1381.222656 1102.640625 C 1383.253906 1102.839844 1384.867188 1103.160156 1386.054688 1103.605469 C 1387.246094 1104.050781 1388.1875 1104.671875 1388.882813 1105.464844 C 1389.578125 1106.257813 1390.222656 1107.25 1390.816406 1108.441406 C 1391.511719 1109.925781 1392.105469 1111.761719 1392.601563 1113.941406 C 1393.097656 1116.125 1393.492188 1119.148438 1393.789063 1123.015625 C 1394.085938 1126.882813 1394.285156 1131.816406 1394.386719 1137.816406 C 1394.484375 1143.8125 1394.535156 1151.375 1394.535156 1160.496094 C 1394.535156 1169.617188 1394.484375 1177.179688 1394.386719 1183.175781 C 1394.285156 1189.175781 1394.085938 1194.109375 1393.789063 1197.976563 C 1393.492188 1201.84375 1393.097656 1204.890625 1392.601563 1207.125 C 1392.105469 1209.355469 1391.511719 1211.214844 1390.816406 1212.699219 Z M 1379.808594 1201.101563 C 1380.105469 1200.207031 1380.355469 1199.167969 1380.554688 1197.976563 C 1380.75 1196.785156 1380.925781 1194.804688 1381.074219 1192.027344 C 1381.222656 1189.25 1381.320313 1185.382813 1381.371094 1180.425781 C 1381.421875 1175.46875 1381.445313 1168.824219 1381.445313 1160.496094 C 1381.445313 1151.574219 1381.421875 1144.582031 1381.371094 1139.523438 C 1381.320313 1134.46875 1381.222656 1130.578125 1381.074219 1127.851563 C 1380.925781 1125.121094 1380.75 1123.238281 1380.554688 1122.199219 C 1380.355469 1121.15625 1380.105469 1120.191406 1379.808594 1119.296875 C 1379.214844 1117.613281 1378.496094 1116.546875 1377.652344 1116.101563 C 1376.808594 1115.652344 1375.347656 1115.429688 1373.265625 1115.429688 C 1371.183594 1115.429688 1369.71875 1115.652344 1368.878906 1116.101563 C 1368.035156 1116.546875 1367.316406 1117.613281 1366.722656 1119.296875 C 1366.425781 1120.191406 1366.175781 1121.15625 1365.976563 1122.199219 C 1365.78125 1123.238281 1365.605469 1125.121094 1365.457031 1127.851563 C 1365.308594 1130.578125 1365.210938 1134.46875 1365.160156 1139.523438 C 1365.109375 1144.582031 1365.085938 1151.574219 1365.085938 1160.496094 C 1365.085938 1168.824219 1365.109375 1175.46875 1365.160156 1180.425781 C 1365.210938 1185.382813 1365.308594 1189.25 1365.457031 1192.027344 C 1365.605469 1194.804688 1365.78125 1196.785156 1365.976563 1197.976563 C 1366.175781 1199.167969 1366.425781 1200.207031 1366.722656 1201.101563 C 1367.316406 1202.785156 1368.035156 1203.828125 1368.878906 1204.222656 C 1369.71875 1204.621094 1371.183594 1204.816406 1373.265625 1204.816406 C 1375.347656 1204.816406 1376.808594 1204.621094 1377.652344 1204.222656 C 1378.496094 1203.828125 1379.214844 1202.785156 1379.808594 1201.101563 Z M 1465.71875 1212.699219 C 1465.125 1213.890625 1464.480469 1214.882813 1463.785156 1215.675781 C 1463.089844 1216.46875 1462.148438 1217.089844 1460.957031 1217.535156 C 1459.769531 1217.980469 1458.15625 1218.304688 1456.125 1218.5 C 1454.09375 1218.699219 1451.441406 1218.800781 1448.167969 1218.800781 C 1444.894531 1218.800781 1442.242188 1218.699219 1440.210938 1218.5 C 1438.179688 1218.304688 1436.566406 1217.980469 1435.378906 1217.535156 C 1434.1875 1217.089844 1433.246094 1216.46875 1432.550781 1215.675781 C 1431.855469 1214.882813 1431.210938 1213.890625 1430.617188 1212.699219 C 1429.824219 1211.214844 1429.203125 1209.355469 1428.757813 1207.125 C 1428.3125 1204.890625 1427.941406 1201.84375 1427.644531 1197.976563 C 1427.34375 1194.109375 1427.148438 1189.175781 1427.046875 1183.175781 C 1426.949219 1177.179688 1426.898438 1169.617188 1426.898438 1160.496094 C 1426.898438 1151.375 1426.949219 1143.8125 1427.046875 1137.816406 C 1427.148438 1131.816406 1427.34375 1126.882813 1427.644531 1123.015625 C 1427.941406 1119.148438 1428.3125 1116.125 1428.757813 1113.941406 C 1429.203125 1111.761719 1429.824219 1109.925781 1430.617188 1108.441406 C 1431.210938 1107.25 1431.855469 1106.257813 1432.550781 1105.464844 C 1433.246094 1104.671875 1434.1875 1104.050781 1435.378906 1103.605469 C 1436.566406 1103.160156 1438.179688 1102.839844 1440.210938 1102.640625 C 1442.242188 1102.441406 1444.894531 1102.34375 1448.167969 1102.34375 C 1451.441406 1102.34375 1454.09375 1102.441406 1456.125 1102.640625 C 1458.15625 1102.839844 1459.769531 1103.160156 1460.957031 1103.605469 C 1462.148438 1104.050781 1463.089844 1104.671875 1463.785156 1105.464844 C 1464.480469 1106.257813 1465.125 1107.25 1465.71875 1108.441406 C 1466.414063 1109.925781 1467.007813 1111.761719 1467.503906 1113.941406 C 1468 1116.125 1468.394531 1119.148438 1468.691406 1123.015625 C 1468.988281 1126.882813 1469.1875 1131.816406 1469.289063 1137.816406 C 1469.386719 1143.8125 1469.4375 1151.375 1469.4375 1160.496094 C 1469.4375 1169.617188 1469.386719 1177.179688 1469.289063 1183.175781 C 1469.1875 1189.175781 1468.988281 1194.109375 1468.691406 1197.976563 C 1468.394531 1201.84375 1468 1204.890625 1467.503906 1207.125 C 1467.007813 1209.355469 1466.414063 1211.214844 1465.71875 1212.699219 Z M 1454.710938 1201.101563 C 1455.007813 1200.207031 1455.257813 1199.167969 1455.457031 1197.976563 C 1455.652344 1196.785156 1455.828125 1194.804688 1455.976563 1192.027344 C 1456.125 1189.25 1456.222656 1185.382813 1456.273438 1180.425781 C 1456.324219 1175.46875 1456.347656 1168.824219 1456.347656 1160.496094 C 1456.347656 1151.574219 1456.324219 1144.582031 1456.273438 1139.523438 C 1456.222656 1134.46875 1456.125 1130.578125 1455.976563 1127.851563 C 1455.828125 1125.121094 1455.652344 1123.238281 1455.457031 1122.199219 C 1455.257813 1121.15625 1455.007813 1120.191406 1454.710938 1119.296875 C 1454.117188 1117.613281 1453.398438 1116.546875 1452.554688 1116.101563 C 1451.710938 1115.652344 1450.25 1115.429688 1448.167969 1115.429688 C 1446.085938 1115.429688 1444.621094 1115.652344 1443.78125 1116.101563 C 1442.9375 1116.546875 1442.21875 1117.613281 1441.625 1119.296875 C 1441.328125 1120.191406 1441.078125 1121.15625 1440.878906 1122.199219 C 1440.683594 1123.238281 1440.507813 1125.121094 1440.359375 1127.851563 C 1440.210938 1130.578125 1440.113281 1134.46875 1440.0625 1139.523438 C 1440.011719 1144.582031 1439.988281 1151.574219 1439.988281 1160.496094 C 1439.988281 1168.824219 1440.011719 1175.46875 1440.0625 1180.425781 C 1440.113281 1185.382813 1440.210938 1189.25 1440.359375 1192.027344 C 1440.507813 1194.804688 1440.683594 1196.785156 1440.878906 1197.976563 C 1441.078125 1199.167969 1441.328125 1200.207031 1441.625 1201.101563 C 1442.21875 1202.785156 1442.9375 1203.828125 1443.78125 1204.222656 C 1444.621094 1204.621094 1446.085938 1204.816406 1448.167969 1204.816406 C 1450.25 1204.816406 1451.710938 1204.621094 1452.554688 1204.222656 C 1453.398438 1203.828125 1454.117188 1202.785156 1454.710938 1201.101563 Z M 1514.742188 1173.734375 C 1514.640625 1174.726563 1514.566406 1175.816406 1514.519531 1177.003906 C 1514.46875 1178.195313 1514.445313 1179.632813 1514.445313 1181.320313 C 1514.445313 1184.691406 1514.46875 1187.441406 1514.519531 1189.574219 C 1514.566406 1191.707031 1514.667969 1193.488281 1514.816406 1194.925781 C 1514.964844 1196.367188 1515.164063 1197.578125 1515.410156 1198.570313 C 1515.660156 1199.5625 1516.03125 1200.554688 1516.527344 1201.546875 C 1517.023438 1202.734375 1517.742188 1203.578125 1518.683594 1204.074219 C 1519.625 1204.570313 1521.1875 1204.816406 1523.367188 1204.816406 C 1525.449219 1204.816406 1526.863281 1204.546875 1527.605469 1204 C 1528.351563 1203.453125 1528.96875 1202.636719 1529.464844 1201.546875 C 1529.863281 1200.554688 1530.183594 1199.511719 1530.433594 1198.421875 C 1530.679688 1197.332031 1530.855469 1195.769531 1530.953125 1193.738281 C 1531.050781 1191.707031 1531.101563 1188.976563 1531.101563 1185.558594 C 1531.101563 1182.136719 1531.101563 1177.550781 1531.101563 1171.800781 C 1531.101563 1168.132813 1531.078125 1165.179688 1531.027344 1162.949219 C 1530.976563 1160.71875 1530.878906 1158.933594 1530.730469 1157.597656 C 1530.582031 1156.257813 1530.382813 1155.265625 1530.136719 1154.621094 C 1529.886719 1153.976563 1529.566406 1153.40625 1529.167969 1152.910156 C 1528.574219 1152.117188 1527.902344 1151.574219 1527.160156 1151.273438 C 1526.417969 1150.976563 1525.25 1150.828125 1523.664063 1150.828125 C 1522.179688 1150.828125 1521.0625 1150.929688 1520.320313 1151.125 C 1519.574219 1151.324219 1518.855469 1151.671875 1518.164063 1152.167969 C 1516.675781 1153.257813 1515.535156 1154.644531 1514.742188 1156.332031 L 1503.882813 1153.058594 L 1506.414063 1104.277344 L 1543 1104.277344 L 1543 1117.808594 L 1518.164063 1117.808594 L 1516.675781 1142.5 L 1517.417969 1142.796875 C 1518.410156 1141.707031 1519.722656 1140.839844 1521.359375 1140.195313 C 1522.996094 1139.550781 1525.25 1139.226563 1528.128906 1139.226563 C 1531.003906 1139.226563 1533.183594 1139.523438 1534.671875 1140.121094 C 1536.160156 1140.714844 1537.597656 1141.855469 1538.984375 1143.539063 C 1539.976563 1144.730469 1540.820313 1145.996094 1541.511719 1147.332031 C 1542.207031 1148.671875 1542.753906 1150.382813 1543.148438 1152.464844 C 1543.546875 1154.546875 1543.816406 1157.101563 1543.96875 1160.125 C 1544.117188 1163.148438 1544.191406 1166.890625 1544.191406 1171.355469 C 1544.191406 1176.808594 1544.117188 1181.542969 1543.96875 1185.558594 C 1543.816406 1189.574219 1543.59375 1193.09375 1543.296875 1196.117188 C 1543 1199.140625 1542.605469 1201.746094 1542.109375 1203.925781 C 1541.613281 1206.105469 1541.015625 1207.992188 1540.324219 1209.578125 C 1538.933594 1213.046875 1536.878906 1215.453125 1534.152344 1216.792969 C 1531.425781 1218.128906 1527.433594 1218.800781 1522.179688 1218.800781 C 1518.3125 1218.800781 1515.089844 1218.253906 1512.511719 1217.164063 C 1509.933594 1216.074219 1507.875 1214.1875 1506.339844 1211.511719 C 1504.800781 1208.835938 1503.6875 1205.238281 1502.992188 1200.726563 C 1502.296875 1196.214844 1501.949219 1190.589844 1501.949219 1183.847656 C 1501.949219 1181.269531 1501.976563 1179.3125 1502.023438 1177.972656 C 1502.074219 1176.632813 1502.199219 1175.21875 1502.398438 1173.734375 Z M 1514.742188 1173.734375 "/>
<path style=" stroke:none;fill-rule:nonzero;fill:rgb(100%,100%,100%);fill-opacity:1;" d="M 390.808594 1049.863281 L 299.648438 1060.910156 L 186.65625 1104.59375 L 185.277344 1104.761719 L 182.296875 1080.175781 C 198.078125 1074.714844 210.722656 1070.332031 220.226563 1067.03125 C 229.730469 1063.730469 237.222656 1061.1875 242.707031 1059.402344 C 248.1875 1057.617188 252.144531 1056.34375 254.574219 1055.582031 C 257.007813 1054.820313 259.027344 1054.152344 260.640625 1053.585938 L 260.40625 1051.652344 C 258.726563 1051.667969 256.609375 1051.550781 254.058594 1051.300781 C 251.503906 1051.046875 247.347656 1050.664063 241.585938 1050.148438 C 235.824219 1049.632813 227.933594 1048.90625 217.914063 1047.96875 C 207.898438 1047.035156 194.5625 1045.707031 177.910156 1043.988281 L 175 1019.957031 L 176.378906 1019.789063 L 296.191406 1034.703125 L 387.628906 1023.621094 Z M 212.964844 795.277344 L 220.25 771.898438 L 365.5625 817.195313 C 372.292969 819.292969 377.949219 821.105469 382.523438 822.628906 C 387.101563 824.152344 391.03125 825.570313 394.3125 826.886719 C 397.59375 828.199219 400.367188 829.597656 402.625 831.078125 C 404.882813 832.558594 407.058594 834.308594 409.152344 836.320313 C 413.636719 840.632813 416.136719 845.542969 416.65625 851.046875 C 417.175781 856.550781 415.972656 863.996094 413.046875 873.382813 C 410.066406 882.949219 406.796875 889.847656 403.242188 894.082031 C 399.6875 898.316406 394.839844 900.9375 388.699219 901.9375 C 385.832031 902.402344 383.046875 902.605469 380.347656 902.539063 C 377.648438 902.476563 374.558594 902.097656 371.085938 901.402344 C 367.609375 900.707031 363.554688 899.6875 358.921875 898.339844 C 354.292969 896.992188 348.609375 895.269531 341.878906 893.171875 L 196.566406 847.875 L 204.105469 823.699219 L 349.414063 868.996094 C 354.730469 870.652344 359.039063 871.949219 362.339844 872.878906 C 365.644531 873.8125 368.386719 874.523438 370.570313 875.007813 C 372.75 875.492188 374.527344 875.707031 375.90625 875.652344 C 377.285156 875.59375 378.703125 875.40625 380.164063 875.085938 C 382.265625 874.574219 383.890625 873.574219 385.03125 872.085938 C 386.175781 870.59375 387.21875 868.34375 388.15625 865.335938 C 389.09375 862.324219 389.503906 859.925781 389.378906 858.136719 C 389.257813 856.351563 388.476563 854.648438 387.035156 853.035156 C 386.015625 851.941406 384.957031 850.976563 383.855469 850.148438 C 382.753906 849.320313 381.167969 848.484375 379.097656 847.644531 C 377.027344 846.804688 374.367188 845.832031 371.121094 844.722656 C 367.871094 843.613281 363.589844 842.226563 358.277344 840.574219 Z M 456.527344 729.417969 L 304.617188 622.785156 L 289.589844 644.195313 L 269.089844 629.808594 L 313.214844 566.949219 L 333.710938 581.335938 L 318.84375 602.515625 L 470.753906 709.148438 Z M 411.949219 440.695313 L 427.921875 422.136719 L 543.285156 521.429688 C 548.628906 526.027344 553.097656 529.933594 556.691406 533.152344 C 560.285156 536.367188 563.328125 539.230469 565.820313 541.742188 C 568.308594 544.253906 570.296875 546.636719 571.78125 548.894531 C 573.265625 551.148438 574.566406 553.617188 575.6875 556.296875 C 578.089844 562.035156 578.4375 567.535156 576.726563 572.792969 C 575.015625 578.050781 570.953125 584.40625 564.539063 591.855469 C 558.003906 599.449219 552.265625 604.480469 547.320313 606.957031 C 542.375 609.433594 536.886719 609.910156 530.851563 608.386719 C 528.039063 607.675781 525.402344 606.757813 522.949219 605.625 C 520.5 604.492188 517.816406 602.917969 514.902344 600.898438 C 511.988281 598.882813 508.671875 596.335938 504.957031 593.257813 C 501.242188 590.183594 496.710938 586.34375 491.371094 581.746094 L 376.007813 482.453125 L 392.527344 463.261719 L 507.886719 562.554688 C 512.105469 566.183594 515.546875 569.085938 518.207031 571.253906 C 520.867188 573.421875 523.105469 575.160156 524.910156 576.472656 C 526.71875 577.785156 528.269531 578.6875 529.554688 579.183594 C 530.839844 579.679688 532.21875 580.070313 533.6875 580.355469 C 535.820313 580.722656 537.707031 580.449219 539.347656 579.535156 C 540.988281 578.625 542.839844 576.972656 544.894531 574.582031 C 546.953125 572.191406 548.28125 570.152344 548.878906 568.464844 C 549.476563 566.773438 549.433594 564.902344 548.753906 562.847656 C 548.253906 561.441406 547.664063 560.136719 546.980469 558.9375 C 546.300781 557.738281 545.175781 556.34375 543.609375 554.75 C 542.042969 553.15625 539.988281 551.207031 537.449219 548.898438 C 534.910156 546.589844 531.527344 543.617188 527.3125 539.988281 Z M 744.292969 452.429688 L 694.671875 370.902344 L 667.8125 387.25 L 717.433594 468.78125 L 695.804688 481.945313 L 586.285156 302.011719 L 607.914063 288.847656 L 655.367188 366.808594 L 682.226563 350.460938 L 634.773438 272.496094 L 656.167969 259.476563 L 765.6875 439.410156 Z M 906.070313 402.011719 L 892.699219 346.074219 L 870.421875 349.492188 L 874.441406 406.867188 L 849.960938 410.625 L 838.636719 199.253906 L 879.894531 192.921875 L 931.097656 398.171875 Z M 869.339844 245.214844 C 868.324219 241.054688 867.324219 236.984375 866.339844 233.007813 C 865.351563 229.027344 864.351563 224.960938 863.339844 220.796875 L 861.414063 221.09375 C 861.695313 225.367188 861.960938 229.550781 862.210938 233.640625 C 862.464844 237.730469 862.730469 241.910156 863.011719 246.183594 L 867.847656 325.394531 L 887.925781 322.3125 Z M 1017.710938 391.789063 L 1016.988281 181.144531 L 1042.308594 181.058594 L 1043.03125 391.703125 Z M 1189.875 411.90625 C 1189.582031 410.695313 1189.394531 409.460938 1189.300781 408.203125 C 1189.210938 406.945313 1189.28125 405.199219 1189.511719 402.96875 C 1189.742188 400.738281 1190.148438 397.734375 1190.730469 393.96875 C 1191.316406 390.199219 1192.136719 385.203125 1193.195313 378.972656 C 1194.417969 372.019531 1195.605469 365.011719 1196.761719 357.949219 C 1197.914063 350.886719 1198.832031 343.816406 1199.515625 336.738281 C 1199.902344 330.925781 1199.519531 327.03125 1198.355469 325.046875 C 1197.195313 323.066406 1194.808594 321.660156 1191.191406 320.824219 L 1179.804688 318.195313 L 1159.78125 404.957031 L 1135.921875 399.453125 L 1183.292969 194.203125 L 1226.675781 204.21875 C 1233 205.675781 1237.703125 207.570313 1240.785156 209.902344 C 1243.863281 212.230469 1246.292969 215.3125 1248.074219 219.152344 C 1249.199219 221.695313 1250.046875 224.414063 1250.617188 227.304688 C 1251.1875 230.199219 1251.417969 233.535156 1251.304688 237.316406 C 1251.191406 241.097656 1250.71875 245.417969 1249.886719 250.269531 C 1249.050781 255.121094 1247.90625 260.710938 1246.445313 267.039063 C 1244.941406 273.542969 1243.589844 278.992188 1242.386719 283.378906 C 1241.183594 287.765625 1239.992188 291.488281 1238.808594 294.546875 C 1237.628906 297.605469 1236.515625 300.15625 1235.472656 302.203125 C 1234.429688 304.246094 1233.339844 306.085938 1232.199219 307.726563 C 1230.222656 310.507813 1228.1875 312.515625 1226.097656 313.746094 C 1224.003906 314.976563 1221.859375 315.8125 1219.664063 316.257813 L 1219.351563 317.613281 C 1220.949219 318.933594 1222.324219 321.011719 1223.480469 323.851563 C 1224.632813 326.6875 1224.925781 330.988281 1224.355469 336.761719 C 1223.449219 346.453125 1222.289063 356.226563 1220.871094 366.085938 C 1219.453125 375.941406 1217.804688 386.175781 1215.925781 396.785156 C 1215.328125 401.027344 1214.921875 404.644531 1214.707031 407.640625 C 1214.488281 410.636719 1214.519531 413.59375 1214.800781 416.515625 L 1214.546875 417.601563 Z M 1195.71875 298.738281 C 1198.972656 299.488281 1201.789063 299.664063 1204.167969 299.257813 C 1206.542969 298.855469 1208.8125 297.285156 1210.964844 294.546875 C 1212.023438 293.265625 1212.898438 291.945313 1213.59375 290.582031 C 1214.289063 289.21875 1215.054688 287.351563 1215.890625 284.972656 C 1216.722656 282.59375 1217.613281 279.5625 1218.558594 275.878906 C 1219.503906 272.195313 1220.664063 267.371094 1222.042969 261.40625 C 1223.085938 256.886719 1223.90625 253.125 1224.503906 250.121094 C 1225.101563 247.117188 1225.53125 244.648438 1225.785156 242.707031 C 1226.042969 240.769531 1226.082031 239.160156 1225.902344 237.878906 C 1225.71875 236.601563 1225.464844 235.445313 1225.128906 234.417969 C 1223.753906 230.480469 1220.988281 228.035156 1216.828125 227.074219 L 1201.644531 223.570313 L 1184.875 296.234375 Z M 1384.707031 424.515625 C 1383.328125 426.066406 1381.925781 427.925781 1380.496094 430.097656 C 1379.066406 432.265625 1377.335938 435.015625 1375.308594 438.34375 C 1371.066406 445.3125 1368.160156 450.441406 1366.59375 453.722656 C 1365.03125 457.003906 1364.175781 460.015625 1364.027344 462.75 C 1363.917969 465.070313 1364.277344 466.972656 1365.113281 468.457031 C 1365.945313 469.945313 1367.710938 471.507813 1370.402344 473.148438 C 1373.570313 475.078125 1376.046875 476.09375 1377.828125 476.203125 C 1379.609375 476.308594 1381.679688 475.671875 1384.042969 474.289063 C 1386.503906 472.746094 1388.953125 470.328125 1391.394531 467.035156 C 1393.832031 463.742188 1397.464844 458.136719 1402.289063 450.214844 C 1404.125 447.203125 1405.667969 444.667969 1406.921875 442.609375 C 1408.175781 440.550781 1409.132813 438.796875 1409.796875 437.355469 C 1410.457031 435.910156 1411.023438 434.625 1411.492188 433.5 C 1411.960938 432.375 1412.421875 431.082031 1412.878906 429.621094 C 1413.59375 427.015625 1413.777344 424.84375 1413.421875 423.109375 C 1413.066406 421.375 1412.234375 418.910156 1410.917969 415.71875 C 1409.886719 413.136719 1408.640625 410.367188 1407.179688 407.414063 C 1405.71875 404.460938 1404.285156 401.46875 1402.871094 398.4375 C 1401.460938 395.40625 1400.152344 392.382813 1398.949219 389.367188 C 1397.742188 386.355469 1396.832031 383.574219 1396.210938 381.023438 C 1395.59375 378.472656 1395.332031 375.871094 1395.429688 373.214844 C 1395.527344 370.558594 1396.222656 367.453125 1397.519531 363.898438 C 1398.816406 360.34375 1400.800781 356.015625 1403.476563 350.910156 C 1406.148438 345.804688 1409.800781 339.453125 1414.433594 331.847656 C 1420.515625 321.867188 1425.667969 314.742188 1429.894531 310.472656 C 1434.121094 306.207031 1438.628906 303.359375 1443.410156 301.925781 C 1447.585938 300.777344 1451.675781 300.660156 1455.675781 301.578125 C 1459.679688 302.496094 1464.769531 304.835938 1470.949219 308.601563 C 1478.238281 313.039063 1483.261719 317.183594 1486.019531 321.035156 C 1488.777344 324.886719 1490.363281 328.789063 1490.785156 332.734375 C 1491.167969 337.097656 1490.429688 341.699219 1488.570313 346.535156 C 1486.707031 351.375 1483.316406 357.835938 1478.394531 365.917969 C 1475.308594 370.984375 1472.65625 375.074219 1470.4375 378.175781 C 1468.222656 381.277344 1466.25 383.714844 1464.519531 385.484375 L 1446.695313 374.628906 C 1447.980469 373.238281 1449.359375 371.417969 1450.835938 369.167969 C 1452.316406 366.921875 1454.164063 363.972656 1456.382813 360.328125 C 1460.050781 354.308594 1462.539063 349.6875 1463.847656 346.46875 C 1465.160156 343.246094 1465.710938 340.378906 1465.503906 337.863281 C 1465.328125 336.019531 1464.722656 334.511719 1463.699219 333.34375 C 1462.671875 332.175781 1460.890625 330.820313 1458.355469 329.273438 C 1455.820313 327.730469 1453.816406 326.835938 1452.335938 326.585938 C 1450.859375 326.339844 1449.210938 326.636719 1447.390625 327.484375 C 1445.222656 328.550781 1443.070313 330.390625 1440.9375 333 C 1438.804688 335.613281 1435.808594 340.085938 1431.949219 346.421875 C 1429.726563 350.066406 1427.917969 353.039063 1426.519531 355.335938 C 1425.121094 357.632813 1424 359.558594 1423.164063 361.109375 C 1422.328125 362.664063 1421.714844 364.027344 1421.324219 365.203125 C 1420.933594 366.378906 1420.558594 367.617188 1420.199219 368.917969 C 1419.738281 371.460938 1419.589844 373.488281 1419.753906 375 C 1419.917969 376.511719 1420.691406 378.992188 1422.066406 382.4375 C 1423.570313 386.390625 1425.664063 390.707031 1428.351563 395.386719 C 1431.042969 400.066406 1433.386719 404.859375 1435.390625 409.773438 C 1436.988281 413.570313 1438.050781 416.550781 1438.578125 418.71875 C 1439.105469 420.886719 1439.230469 423.621094 1438.953125 426.929688 C 1438.71875 428.742188 1438.402344 430.503906 1438.011719 432.21875 C 1437.617188 433.9375 1436.816406 436.054688 1435.605469 438.574219 C 1434.398438 441.097656 1432.695313 444.242188 1430.507813 448.015625 C 1428.320313 451.785156 1425.441406 456.601563 1421.871094 462.464844 C 1418.105469 468.644531 1414.738281 473.816406 1411.769531 477.980469 C 1408.800781 482.144531 1406.09375 485.601563 1403.660156 488.351563 C 1401.222656 491.105469 1398.957031 493.308594 1396.863281 494.964844 C 1394.769531 496.621094 1392.667969 498.109375 1390.558594 499.433594 C 1386.4375 501.917969 1381.738281 502.859375 1376.460938 502.25 C 1371.183594 501.640625 1364.742188 499.023438 1357.136719 494.390625 C 1350.640625 490.433594 1345.96875 486.609375 1343.113281 482.914063 C 1340.257813 479.222656 1338.976563 474.640625 1339.265625 469.171875 C 1339.378906 466.847656 1339.617188 464.496094 1339.980469 462.113281 C 1340.347656 459.726563 1341.0625 457.125 1342.132813 454.300781 C 1343.203125 451.476563 1344.679688 448.246094 1346.5625 444.617188 C 1348.449219 440.988281 1350.933594 436.636719 1354.023438 431.566406 C 1356.53125 427.449219 1358.847656 423.917969 1360.964844 420.972656 C 1363.085938 418.027344 1364.980469 415.542969 1366.648438 413.515625 Z M 1496.660156 602.292969 L 1531.265625 556.351563 L 1514.441406 541.355469 L 1472.769531 581 L 1454.28125 564.523438 L 1610.015625 421.160156 L 1641.175781 448.929688 L 1515.5625 619.140625 Z M 1594.140625 474.101563 C 1596.703125 470.671875 1599.203125 467.308594 1601.640625 464.015625 C 1604.078125 460.71875 1606.578125 457.359375 1609.140625 453.925781 L 1607.6875 452.628906 C 1604.570313 455.566406 1601.515625 458.4375 1598.523438 461.238281 C 1595.53125 464.035156 1592.476563 466.90625 1589.363281 469.84375 L 1531.378906 524.023438 L 1546.542969 537.539063 Z M 1564.773438 692.261719 L 1754.414063 600.566406 L 1765.074219 622.613281 L 1598.984375 702.921875 L 1615.335938 736.742188 L 1591.789063 748.125 Z M 1626.65625 827.515625 C 1629.011719 825.050781 1631.734375 822.621094 1634.835938 820.226563 C 1637.933594 817.835938 1642.335938 815.066406 1648.042969 811.917969 C 1653.75 808.773438 1661.335938 804.945313 1670.796875 800.433594 C 1680.261719 795.917969 1692.539063 790.308594 1707.625 783.601563 C 1722.710938 776.894531 1735.058594 771.558594 1744.664063 767.59375 C 1754.269531 763.628906 1762.152344 760.582031 1768.308594 758.453125 C 1774.46875 756.324219 1779.429688 754.929688 1783.199219 754.269531 C 1786.964844 753.609375 1790.636719 753.195313 1794.21875 753.023438 C 1801.203125 752.757813 1806.824219 754.324219 1811.070313 757.710938 C 1815.320313 761.101563 1819.363281 767.121094 1823.207031 775.765625 C 1827.050781 784.410156 1828.808594 791.445313 1828.480469 796.867188 C 1828.148438 802.292969 1825.546875 807.511719 1820.667969 812.523438 C 1818.144531 815.066406 1815.375 817.515625 1812.363281 819.867188 C 1809.347656 822.222656 1804.988281 824.972656 1799.28125 828.121094 C 1793.574219 831.265625 1786.03125 835.078125 1776.652344 839.550781 C 1767.273438 844.027344 1755.039063 849.617188 1739.953125 856.324219 C 1724.867188 863.03125 1712.480469 868.386719 1702.789063 872.390625 C 1693.097656 876.394531 1685.171875 879.460938 1679.015625 881.589844 C 1672.855469 883.71875 1667.851563 885.128906 1664 885.828125 C 1660.148438 886.523438 1656.515625 886.921875 1653.109375 887.015625 C 1646.121094 887.28125 1640.5 885.71875 1636.253906 882.328125 C 1632.007813 878.9375 1627.960938 872.917969 1624.117188 864.273438 C 1620.273438 855.628906 1618.515625 848.59375 1618.84375 843.171875 C 1619.175781 837.746094 1621.777344 832.527344 1626.65625 827.515625 Z M 1661.015625 860.964844 C 1663.277344 860.570313 1665.667969 860.015625 1668.191406 859.296875 C 1670.714844 858.582031 1674.363281 857.316406 1679.140625 855.496094 C 1683.914063 853.679688 1690.320313 851.082031 1698.363281 847.710938 C 1706.40625 844.339844 1717.125 839.675781 1730.515625 833.722656 C 1743.90625 827.769531 1754.609375 822.960938 1762.625 819.296875 C 1770.636719 815.628906 1776.917969 812.636719 1781.46875 810.308594 C 1786.015625 807.980469 1789.359375 806.140625 1791.496094 804.785156 C 1793.632813 803.425781 1795.605469 802.042969 1797.414063 800.628906 C 1800.089844 798.425781 1801.703125 796.238281 1802.257813 794.0625 C 1802.816406 791.886719 1802.339844 789.101563 1800.832031 785.710938 C 1799.324219 782.320313 1797.597656 780.148438 1795.648438 779.1875 C 1793.695313 778.226563 1791.09375 777.960938 1787.835938 778.394531 C 1785.574219 778.792969 1783.164063 779.304688 1780.601563 779.9375 C 1778.039063 780.566406 1774.371094 781.792969 1769.597656 783.609375 C 1764.824219 785.429688 1758.390625 788.085938 1750.300781 791.582031 C 1742.210938 795.074219 1731.472656 799.800781 1718.082031 805.753906 C 1704.6875 811.707031 1694.027344 816.496094 1686.101563 820.121094 C 1678.171875 823.75 1671.929688 826.726563 1667.382813 829.054688 C 1662.835938 831.378906 1659.46875 833.28125 1657.28125 834.761719 C 1655.097656 836.238281 1653.101563 837.683594 1651.292969 839.097656 C 1648.621094 841.300781 1647.027344 843.429688 1646.519531 845.484375 C 1646.011719 847.539063 1646.511719 850.257813 1648.019531 853.648438 C 1649.527344 857.039063 1651.210938 859.234375 1653.078125 860.230469 C 1654.941406 861.230469 1657.585938 861.472656 1661.015625 860.964844 Z M 1648.773438 1054.832031 C 1668.867188 1047.753906 1686.125 1041.644531 1700.554688 1036.503906 C 1714.984375 1031.363281 1727.21875 1027.023438 1737.265625 1023.484375 C 1747.3125 1019.945313 1755.535156 1017.09375 1761.933594 1014.933594 C 1768.332031 1012.777344 1773.539063 1010.996094 1777.558594 1009.601563 C 1781.582031 1008.203125 1784.734375 1007.125 1787.019531 1006.367188 C 1789.304688 1005.609375 1791.363281 1005 1793.199219 1004.542969 L 1793.132813 1003.152344 C 1787.214844 1003.617188 1781.011719 1004.003906 1774.523438 1004.3125 C 1768.039063 1004.617188 1760.90625 1004.957031 1753.121094 1005.324219 L 1646.667969 1010.359375 L 1645.601563 987.847656 L 1856.011719 977.890625 L 1857.351563 1006.242188 C 1841.980469 1011.054688 1828.851563 1015.207031 1817.964844 1018.691406 C 1807.082031 1022.179688 1797.933594 1025.070313 1790.519531 1027.371094 C 1783.105469 1029.671875 1777.160156 1031.53125 1772.675781 1032.953125 C 1768.191406 1034.371094 1764.625 1035.46875 1761.96875 1036.246094 C 1759.3125 1037.019531 1757.292969 1037.582031 1755.917969 1037.925781 C 1754.542969 1038.265625 1753.300781 1038.558594 1752.199219 1038.796875 L 1752.265625 1040.1875 C 1755.777344 1039.835938 1759.386719 1039.570313 1763.09375 1039.394531 C 1766.796875 1039.21875 1771.800781 1038.984375 1778.101563 1038.683594 L 1858.707031 1034.871094 L 1859.785156 1057.664063 L 1649.375 1067.617188 Z M 1648.773438 1054.832031 "/>
<path style=" stroke:none;fill-rule:evenodd;fill:rgb(100%,100%,100%);fill-opacity:1;" d="M 1718.046875 1160.582031 C 1708.363281 1160.582031 1700.511719 1168.433594 1700.511719 1178.117188 C 1700.511719 1187.804688 1708.363281 1195.652344 1718.046875 1195.652344 C 1727.730469 1195.652344 1735.582031 1187.804688 1735.582031 1178.117188 C 1735.582031 1168.433594 1727.730469 1160.582031 1718.046875 1160.582031 "/>
<path style=" stroke:none;fill-rule:evenodd;fill:rgb(100%,100%,100%);fill-opacity:1;" d="M 1697.238281 1265.226563 C 1687.65625 1263.808594 1678.742188 1270.425781 1677.324219 1280.007813 C 1675.910156 1289.585938 1682.527344 1298.5 1692.105469 1299.917969 C 1701.6875 1301.335938 1710.601563 1294.71875 1712.019531 1285.136719 C 1713.433594 1275.558594 1706.816406 1266.644531 1697.238281 1265.226563 "/>
<path style=" stroke:none;fill-rule:evenodd;fill:rgb(100%,100%,100%);fill-opacity:1;" d="M 1661.339844 1365.695313 C 1652.070313 1362.894531 1642.28125 1368.132813 1639.480469 1377.402344 C 1636.675781 1386.671875 1641.917969 1396.460938 1651.1875 1399.265625 C 1660.457031 1402.066406 1670.242188 1396.828125 1673.046875 1387.558594 C 1675.851563 1378.289063 1670.609375 1368.5 1661.339844 1365.695313 "/>
<path style=" stroke:none;fill-rule:evenodd;fill:rgb(100%,100%,100%);fill-opacity:1;" d="M 1611.125 1459.832031 C 1602.367188 1455.703125 1591.917969 1459.453125 1587.785156 1468.214844 C 1583.65625 1476.972656 1587.410156 1487.421875 1596.167969 1491.550781 C 1604.929688 1495.683594 1615.378906 1491.929688 1619.507813 1483.171875 C 1623.636719 1474.410156 1619.886719 1463.960938 1611.125 1459.832031 "/>
<path style=" stroke:none;fill-rule:evenodd;fill:rgb(100%,100%,100%);fill-opacity:1;" d="M 1547.675781 1545.605469 C 1539.617188 1540.238281 1528.730469 1542.421875 1523.363281 1550.480469 C 1517.996094 1558.542969 1520.175781 1569.429688 1528.238281 1574.796875 C 1536.300781 1580.164063 1547.183594 1577.980469 1552.550781 1569.917969 C 1557.917969 1561.859375 1555.738281 1550.972656 1547.675781 1545.605469 "/>
<path style=" stroke:none;fill-rule:evenodd;fill:rgb(100%,100%,100%);fill-opacity:1;" d="M 1472.355469 1621.171875 C 1465.167969 1614.679688 1454.082031 1615.246094 1447.589844 1622.4375 C 1441.101563 1629.625 1441.667969 1640.710938 1448.855469 1647.203125 C 1456.046875 1653.691406 1467.132813 1653.125 1473.621094 1645.9375 C 1480.113281 1638.746094 1479.546875 1627.660156 1472.355469 1621.171875 "/>
<path style=" stroke:none;fill-rule:evenodd;fill:rgb(100%,100%,100%);fill-opacity:1;" d="M 1386.792969 1684.898438 C 1380.628906 1677.425781 1369.578125 1676.367188 1362.105469 1682.527344 C 1354.636719 1688.6875 1353.574219 1699.738281 1359.734375 1707.210938 C 1365.894531 1714.683594 1376.945313 1715.746094 1384.417969 1709.582031 C 1391.890625 1703.421875 1392.953125 1692.371094 1386.792969 1684.898438 "/>
</g>
</svg>
