<svg width="16" height="16" viewBox="0 0 16 16" fill="none" xmlns="http://www.w3.org/2000/svg">
<path d="M3.99561 8.80029H8.17773C8.25098 8.80029 8.31201 8.77588 8.36084 8.72705C8.41455 8.67334 8.44141 8.6123 8.44141 8.54395V3.146C8.44141 3.07275 8.41455 3.01416 8.36084 2.97021C8.31201 2.92139 8.25098 2.89697 8.17773 2.89697C8.11426 2.89697 8.05566 2.92139 8.00195 2.97021C7.95312 3.01416 7.92871 3.07275 7.92871 3.146V8.29492H3.99561C3.92236 8.29492 3.86133 8.31934 3.8125 8.36816C3.76855 8.41699 3.74658 8.47559 3.74658 8.54395C3.74658 8.6123 3.76855 8.67334 3.8125 8.72705C3.86133 8.77588 3.92236 8.80029 3.99561 8.80029ZM8.17773 15.3555C9.16895 15.3555 10.0967 15.1675 10.9609 14.7915C11.8252 14.4204 12.5869 13.9053 13.2461 13.2461C13.9053 12.5869 14.4229 11.8252 14.7988 10.9609C15.1748 10.0918 15.3628 9.16406 15.3628 8.17773C15.3628 7.19141 15.1748 6.26611 14.7988 5.40186C14.4229 4.53271 13.9053 3.76855 13.2461 3.10938C12.5869 2.4502 11.8228 1.93506 10.9536 1.56396C10.0894 1.18799 9.16406 1 8.17773 1C7.19141 1 6.26367 1.18799 5.39453 1.56396C4.53027 1.93506 3.76855 2.4502 3.10938 3.10938C2.4502 3.76855 1.93262 4.53271 1.55664 5.40186C1.18555 6.26611 1 7.19141 1 8.17773C1 9.16406 1.18555 10.0918 1.55664 10.9609C1.93262 11.8252 2.4502 12.5869 3.10938 13.2461C3.76855 13.9053 4.53027 14.4204 5.39453 14.7915C6.26367 15.1675 7.19141 15.3555 8.17773 15.3555ZM8.17773 14.7988C7.26465 14.7988 6.40771 14.6279 5.60693 14.2861C4.80615 13.9443 4.10059 13.4707 3.49023 12.8652C2.88477 12.2549 2.41113 11.5493 2.06934 10.7485C1.72754 9.94775 1.55664 9.09082 1.55664 8.17773C1.55664 7.26465 1.72754 6.40771 2.06934 5.60693C2.41113 4.80615 2.88477 4.10059 3.49023 3.49023C4.10059 2.87988 4.80615 2.40381 5.60693 2.06201C6.40771 1.72021 7.26465 1.54932 8.17773 1.54932C9.0957 1.54932 9.95264 1.72021 10.7485 2.06201C11.5493 2.40381 12.2549 2.87988 12.8652 3.49023C13.4756 4.10059 13.9517 4.80615 14.2935 5.60693C14.6353 6.40771 14.8062 7.26465 14.8062 8.17773C14.8062 9.09082 14.6353 9.94775 14.2935 10.7485C13.9517 11.5493 13.4756 12.2549 12.8652 12.8652C12.2598 13.4707 11.5566 13.9443 10.7559 14.2861C9.95508 14.6279 9.0957 14.7988 8.17773 14.7988Z" fill="#202020"/>
</svg>
