<svg width="24" height="24" viewBox="0 0 24 24" fill="none" xmlns="http://www.w3.org/2000/svg">
<path d="M4.41943 21.3838C4.80127 21.3838 5.10449 21.0693 5.10449 20.71V17.2734C6.16016 16.9702 6.93506 15.9932 6.93506 14.8477C6.93506 13.7021 6.16016 12.7251 5.10449 12.4219V2.69629C5.10449 2.31445 4.80127 2 4.41943 2C4.02637 2 3.72314 2.31445 3.72314 2.69629V12.4106C2.66748 12.7139 1.88135 13.6909 1.88135 14.8477C1.88135 15.9932 2.66748 16.9702 3.72314 17.2734V20.71C3.72314 21.0693 4.02637 21.3838 4.41943 21.3838ZM12 21.3838C12.3818 21.3838 12.6963 21.0693 12.6963 20.6875V10.5576C13.7407 10.2544 14.5156 9.27734 14.5156 8.13184C14.5156 6.98633 13.7407 6.00928 12.6963 5.70605V2.67383C12.6963 2.31445 12.3818 2 12 2C11.6069 2 11.3037 2.31445 11.3037 2.67383V5.69482C10.248 5.99805 9.46191 6.9751 9.46191 8.13184C9.46191 9.27734 10.248 10.2544 11.3037 10.5576V20.6875C11.3037 21.0693 11.6069 21.3838 12 21.3838ZM17.0649 14.8477C17.0649 15.9932 17.8398 16.959 18.8843 17.2734V20.71C18.8843 21.0693 19.1875 21.3838 19.5806 21.3838C19.9624 21.3838 20.2769 21.0693 20.2769 20.71V17.2734C21.3325 16.9814 22.1187 16.0044 22.1187 14.8477C22.1187 13.6909 21.3325 12.7139 20.2769 12.4106V2.69629C20.2769 2.31445 19.9624 2 19.5806 2C19.1875 2 18.8843 2.31445 18.8843 2.69629V12.4219C17.8398 12.7251 17.0649 13.7021 17.0649 14.8477ZM10.6074 8.13184C10.6074 7.35693 11.2251 6.75049 12 6.75049C12.7749 6.75049 13.3813 7.35693 13.3813 8.13184C13.3813 8.90674 12.7749 9.51318 12 9.51318C11.2251 9.51318 10.6074 8.90674 10.6074 8.13184ZM3.02686 14.8477C3.02686 14.0728 3.64453 13.4663 4.41943 13.4663C5.19434 13.4663 5.78955 14.0728 5.78955 14.8477C5.78955 15.6226 5.19434 16.229 4.41943 16.229C3.64453 16.229 3.02686 15.6226 3.02686 14.8477ZM18.2104 14.8477C18.2104 14.0728 18.8281 13.4663 19.603 13.4663C20.3779 13.4663 20.9844 14.0728 20.9844 14.8477C20.9844 15.6226 20.3779 16.229 19.603 16.229C18.8281 16.229 18.2104 15.6226 18.2104 14.8477Z" fill="#B69F58"/>
</svg>
