<svg width="26" height="24" viewBox="0 0 26 24" fill="none" xmlns="http://www.w3.org/2000/svg">
<path d="M2.06152 8.71338C2.06152 13.3965 6.14941 17.9897 12.3149 21.9878C12.5171 22.1113 12.7979 22.2349 13 22.2349C13.2021 22.2349 13.4829 22.1113 13.6963 21.9878C19.8618 17.9897 23.9497 13.3965 23.9497 8.71338C23.9497 4.87256 21.2993 2.13232 17.7617 2.13232C15.729 2.13232 13.9658 3.17676 13 4.79395C12.0454 3.18799 10.271 2.13232 8.23828 2.13232C4.70068 2.13232 2.06152 4.87256 2.06152 8.71338ZM3.44287 8.71338C3.44287 5.625 5.47559 3.5249 8.22705 3.5249C10.3159 3.5249 11.6074 4.81641 12.3823 6.10791C12.6182 6.47852 12.7754 6.59082 13 6.59082C13.2246 6.59082 13.3706 6.46729 13.6289 6.10791C14.4263 4.82764 15.6953 3.5249 17.7729 3.5249C20.5244 3.5249 22.5571 5.625 22.5571 8.71338C22.5571 12.9248 18.166 17.3721 13.2021 20.6851C13.1123 20.7412 13.0449 20.7861 13 20.7861C12.9551 20.7861 12.8989 20.7412 12.8091 20.6851C7.84521 17.3721 3.44287 12.9248 3.44287 8.71338Z" fill="white"/>
</svg>
