<svg width="16" height="16" viewBox="0 0 16 16" fill="none" xmlns="http://www.w3.org/2000/svg">
<path d="M11.2829 14.645C11.8005 14.645 12.2766 14.562 12.7111 14.396C13.1506 14.23 13.5558 13.9566 13.9269 13.5757C13.9367 13.5611 13.9465 13.5464 13.9562 13.5318C13.9709 13.522 13.9855 13.5098 14.0002 13.4951C14.2199 13.2754 14.381 13.0484 14.4836 12.814C14.591 12.5796 14.6447 12.3526 14.6447 12.1328C14.6447 11.9326 14.591 11.7398 14.4836 11.5542C14.3762 11.3687 14.215 11.2027 14.0002 11.0562L11.8908 9.62063C11.6271 9.43997 11.3391 9.34719 11.0266 9.34231C10.7141 9.33254 10.3942 9.48879 10.0671 9.81106L9.56903 10.2945C9.49091 10.3726 9.40057 10.4214 9.29803 10.4409C9.1955 10.4605 9.08319 10.4361 8.96112 10.3677C8.8537 10.314 8.69745 10.2139 8.49237 10.0674C8.29218 9.91604 8.06757 9.73538 7.81854 9.52542C7.5744 9.31545 7.33026 9.0884 7.08612 8.84426C6.8078 8.57083 6.57343 8.33157 6.383 8.12649C6.19745 7.91653 6.0412 7.72122 5.91425 7.54055C5.78729 7.35989 5.6701 7.1719 5.56268 6.97659C5.50409 6.85452 5.48456 6.74221 5.50409 6.63967C5.52362 6.53713 5.57245 6.4468 5.65057 6.36868L6.12665 5.87795C6.4538 5.54104 6.61249 5.21877 6.60272 4.91116C6.59296 4.59866 6.50018 4.31057 6.3244 4.0469L4.88153 1.93752C4.73016 1.72268 4.56415 1.56399 4.38348 1.46145C4.20282 1.35891 4.00995 1.3052 3.80487 1.30032C3.35077 1.29055 2.89667 1.5054 2.44257 1.94485C2.42792 1.9595 2.41327 1.9717 2.39862 1.98147C2.38885 1.99124 2.37909 2.001 2.36932 2.01077C1.99335 2.3721 1.71991 2.77004 1.54901 3.20461C1.383 3.63918 1.29999 4.11038 1.29999 4.61819C1.29999 5.28225 1.44403 5.98049 1.73212 6.71292C2.02509 7.44534 2.4328 8.18508 2.95526 8.93215C3.4826 9.67922 4.10516 10.4092 4.82294 11.1221C5.53094 11.8252 6.25604 12.4405 6.99823 12.9678C7.74042 13.4951 8.47284 13.9053 9.1955 14.1983C9.92303 14.4961 10.6188 14.645 11.2829 14.645ZM11.2902 14.0738C10.6701 14.0786 10.0134 13.9395 9.32001 13.6563C8.63153 13.3731 7.93817 12.98 7.23993 12.4771C6.54169 11.9741 5.86542 11.398 5.21112 10.7486C4.55682 10.0894 3.97577 9.40823 3.46796 8.7051C2.96503 7.9971 2.57196 7.29641 2.28876 6.60305C2.00555 5.90481 1.86395 5.24319 1.86395 4.61819C1.86395 4.20315 1.93719 3.81008 2.08368 3.43899C2.23016 3.0679 2.45721 2.73342 2.76483 2.43557C2.7746 2.42092 2.7868 2.40872 2.80145 2.39895C2.8161 2.38918 2.82831 2.37698 2.83807 2.36233C3.00409 2.2012 3.16766 2.08157 3.3288 2.00344C3.48993 1.92043 3.63885 1.87893 3.77557 1.87893C4.0246 1.87893 4.23944 2.01077 4.4201 2.27444L5.841 4.36917C5.94354 4.53518 5.99725 4.7134 6.00214 4.90383C6.00702 5.08938 5.90692 5.27981 5.70184 5.47512L5.16718 6.00979C4.99139 6.18069 4.89374 6.37844 4.87421 6.60305C4.85956 6.82278 4.90594 7.02786 5.01337 7.21829C5.1452 7.43801 5.3576 7.7261 5.65057 8.08254C5.94843 8.43899 6.29755 8.81985 6.69794 9.22512C6.96649 9.49856 7.22528 9.74758 7.4743 9.97219C7.72821 10.1968 7.96259 10.3897 8.17743 10.5508C8.39227 10.7119 8.57294 10.8365 8.71942 10.9243C8.90985 11.0318 9.11493 11.0781 9.33466 11.0635C9.55927 11.0489 9.75702 10.9536 9.92792 10.7779L10.4626 10.2359C10.6628 10.0357 10.8557 9.93557 11.0412 9.93557C11.2316 9.93557 11.4074 9.99172 11.5685 10.104L13.6706 11.5249C13.7975 11.6128 13.8928 11.7105 13.9562 11.8179C14.0246 11.9204 14.0588 12.0352 14.0588 12.1621C14.0588 12.46 13.8952 12.7774 13.5681 13.1143C13.5583 13.124 13.5485 13.1338 13.5388 13.1436C13.529 13.1533 13.5192 13.1631 13.5095 13.1729C13.2018 13.4854 12.86 13.7124 12.4841 13.854C12.113 14.0005 11.715 14.0738 11.2902 14.0738Z" fill="#202020"/>
</svg>
