<svg width="16" height="16" viewBox="0 0 16 16" fill="none" xmlns="http://www.w3.org/2000/svg">
<path d="M8.17773 15.231C8.63184 15.231 9.06885 15.0649 9.48877 14.7329C9.91357 14.4009 10.292 13.9272 10.624 13.312C10.9561 12.6968 11.2173 11.957 11.4077 11.0928C11.603 10.2285 11.7007 9.26172 11.7007 8.19238C11.7007 7.12305 11.603 6.15869 11.4077 5.29932C11.2173 4.43506 10.9561 3.69531 10.624 3.08008C10.292 2.45996 9.91602 1.98389 9.49609 1.65186C9.07617 1.31982 8.63672 1.15381 8.17773 1.15381C7.72363 1.15381 7.28662 1.31982 6.8667 1.65186C6.44678 1.98389 6.0708 2.45996 5.73877 3.08008C5.40674 3.69531 5.14307 4.43506 4.94775 5.29932C4.75244 6.15869 4.65479 7.12305 4.65479 8.19238C4.65479 9.26172 4.75244 10.2285 4.94775 11.0928C5.14307 11.957 5.40674 12.6968 5.73877 13.312C6.0708 13.9272 6.44678 14.4009 6.8667 14.7329C7.28662 15.0649 7.72363 15.231 8.17773 15.231ZM8.17773 1.57861C8.58301 1.57861 8.96387 1.74951 9.32031 2.09131C9.68164 2.42822 10.0015 2.89941 10.2798 3.50488C10.563 4.10547 10.7852 4.80615 10.9463 5.60693C11.1074 6.40771 11.188 7.26953 11.188 8.19238C11.188 9.08105 11.1074 9.92334 10.9463 10.7192C10.7852 11.5103 10.563 12.2134 10.2798 12.8286C10.0015 13.4438 9.68164 13.9272 9.32031 14.2788C8.96387 14.6304 8.58301 14.8062 8.17773 14.8062C7.77734 14.8062 7.39648 14.6304 7.03516 14.2788C6.67383 13.9272 6.354 13.4438 6.07568 12.8286C5.79736 12.2134 5.5752 11.5103 5.40918 10.7192C5.24805 9.92334 5.16748 9.08105 5.16748 8.19238C5.16748 7.26953 5.24805 6.40771 5.40918 5.60693C5.5752 4.80615 5.79736 4.10547 6.07568 3.50488C6.354 2.89941 6.67383 2.42822 7.03516 2.09131C7.39648 1.74951 7.77734 1.57861 8.17773 1.57861ZM7.93604 1.271V15.0845H8.42676V1.271H7.93604ZM8.17773 11.3418C7.4502 11.3418 6.76416 11.3979 6.11963 11.5103C5.47998 11.6226 4.90137 11.7812 4.38379 11.9863C3.87109 12.1865 3.44385 12.4209 3.10205 12.6895L3.47559 13.0044C3.8125 12.7554 4.21533 12.5454 4.68408 12.3745C5.15771 12.1987 5.68506 12.0669 6.26611 11.979C6.85205 11.8862 7.48926 11.8398 8.17773 11.8398C8.87109 11.8398 9.5083 11.8862 10.0894 11.979C10.6753 12.0669 11.2026 12.1987 11.6714 12.3745C12.1401 12.5454 12.5454 12.7554 12.8872 13.0044L13.2607 12.6895C12.9189 12.4209 12.4893 12.1865 11.9717 11.9863C11.4541 11.7812 10.873 11.6226 10.2285 11.5103C9.58887 11.3979 8.90527 11.3418 8.17773 11.3418ZM15.0479 7.92871H1.31494V8.42676H15.0479V7.92871ZM8.17773 5.04297C8.90527 5.04297 9.58887 4.98926 10.2285 4.88184C10.873 4.76953 11.4541 4.61328 11.9717 4.41309C12.4893 4.20801 12.9189 3.97119 13.2607 3.70264L12.8872 3.3877C12.5454 3.63672 12.1401 3.84912 11.6714 4.0249C11.2026 4.1958 10.6753 4.32764 10.0894 4.42041C9.5083 4.5083 8.87109 4.55225 8.17773 4.55225C7.48926 4.55225 6.85205 4.5083 6.26611 4.42041C5.68506 4.32764 5.15771 4.1958 4.68408 4.0249C4.21533 3.84912 3.8125 3.63672 3.47559 3.3877L3.10205 3.70264C3.44385 3.97119 3.87109 4.20801 4.38379 4.41309C4.90137 4.61328 5.47998 4.76953 6.11963 4.88184C6.76416 4.98926 7.4502 5.04297 8.17773 5.04297ZM8.17773 15.3555C9.16895 15.3555 10.0967 15.1675 10.9609 14.7915C11.8252 14.4204 12.5869 13.9053 13.2461 13.2461C13.9053 12.5869 14.4229 11.8252 14.7988 10.9609C15.1748 10.0918 15.3628 9.16406 15.3628 8.17773C15.3628 7.19141 15.1748 6.26611 14.7988 5.40186C14.4229 4.53271 13.9053 3.76855 13.2461 3.10938C12.5869 2.4502 11.8228 1.93506 10.9536 1.56396C10.0894 1.18799 9.16406 1 8.17773 1C7.19141 1 6.26367 1.18799 5.39453 1.56396C4.53027 1.93506 3.76855 2.4502 3.10938 3.10938C2.4502 3.76855 1.93262 4.53271 1.55664 5.40186C1.18555 6.26611 1 7.19141 1 8.17773C1 9.16406 1.18555 10.0918 1.55664 10.9609C1.93262 11.8252 2.4502 12.5869 3.10938 13.2461C3.76855 13.9053 4.53027 14.4204 5.39453 14.7915C6.26367 15.1675 7.19141 15.3555 8.17773 15.3555ZM8.17773 14.8574C7.25977 14.8574 6.39795 14.6841 5.59229 14.3374C4.78662 13.9907 4.07617 13.5098 3.46094 12.8945C2.8457 12.2793 2.36475 11.5688 2.01807 10.7632C1.67627 9.95752 1.50537 9.0957 1.50537 8.17773C1.50537 7.25977 1.67627 6.39795 2.01807 5.59229C2.36475 4.78662 2.84326 4.07617 3.45361 3.46094C4.06885 2.8457 4.7793 2.36475 5.58496 2.01807C6.39551 1.67139 7.25977 1.49805 8.17773 1.49805C9.0957 1.49805 9.95752 1.67139 10.7632 2.01807C11.5737 2.36475 12.2842 2.8457 12.8945 3.46094C13.5098 4.07617 13.9907 4.78662 14.3374 5.59229C14.6841 6.39795 14.8574 7.25977 14.8574 8.17773C14.8574 9.0957 14.6841 9.95752 14.3374 10.7632C13.9907 11.5688 13.5098 12.2793 12.8945 12.8945C12.2842 13.5098 11.5737 13.9907 10.7632 14.3374C9.95752 14.6841 9.0957 14.8574 8.17773 14.8574Z" fill="#202020"/>
</svg>
